<svg width="230" height="101" viewBox="0 0 230 101" fill="none" xmlns="http://www.w3.org/2000/svg">
    <g style="mix-blend-mode:darken">
    <g filter="url(#filter0_i_1_4)">
    <path d="M88.1453 69H80.8973V54.216H67.3133V69H60.0653V34.728H67.3133V48.168H80.8973V34.728H88.1453V69ZM132.384 51.528C132.384 55.368 131.648 58.584 130.176 61.176C128.704 63.768 126.56 65.72 123.744 67.032C120.96 68.344 117.6 69 113.664 69H103.968V34.728H114.72C118.304 34.728 121.408 35.368 124.032 36.648C126.688 37.928 128.736 39.816 130.176 42.312C131.648 44.776 132.384 47.848 132.384 51.528ZM124.848 51.72C124.848 49.192 124.48 47.112 123.744 45.48C123.008 43.848 121.904 42.648 120.432 41.88C118.992 41.08 117.216 40.68 115.104 40.68H111.216V63H114.336C117.888 63 120.528 62.056 122.256 60.168C123.984 58.28 124.848 55.464 124.848 51.72ZM174.252 69H165.996L157.02 54.552L153.948 56.76V69H146.7V34.728H153.948V50.424C154.428 49.752 154.908 49.08 155.388 48.408C155.868 47.736 156.348 47.064 156.828 46.392L166.092 34.728H174.156L162.204 49.896L174.252 69Z" fill="#F5F5F5"/>
    </g>
    <path d="M88.1453 69V87H106.145V69H88.1453ZM80.8973 69H62.8973V87H80.8973V69ZM80.8973 54.216H98.8973V36.216H80.8973V54.216ZM67.3133 54.216V36.216H49.3133V54.216H67.3133ZM67.3133 69V87H85.3133V69H67.3133ZM60.0653 69H42.0653V87H60.0653V69ZM60.0653 34.728V16.728H42.0653V34.728H60.0653ZM67.3133 34.728H85.3133V16.728H67.3133V34.728ZM67.3133 48.168H49.3133V66.168H67.3133V48.168ZM80.8973 48.168V66.168H98.8973V48.168H80.8973ZM80.8973 34.728V16.728H62.8973V34.728H80.8973ZM88.1453 34.728H106.145V16.728H88.1453V34.728ZM88.1453 51H80.8973V87H88.1453V51ZM98.8973 69V54.216H62.8973V69H98.8973ZM80.8973 36.216H67.3133V72.216H80.8973V36.216ZM49.3133 54.216V69H85.3133V54.216H49.3133ZM67.3133 51H60.0653V87H67.3133V51ZM78.0653 69V34.728H42.0653V69H78.0653ZM60.0653 52.728H67.3133V16.728H60.0653V52.728ZM49.3133 34.728V48.168H85.3133V34.728H49.3133ZM67.3133 66.168H80.8973V30.168H67.3133V66.168ZM98.8973 48.168V34.728H62.8973V48.168H98.8973ZM80.8973 52.728H88.1453V16.728H80.8973V52.728ZM70.1453 34.728V69H106.145V34.728H70.1453ZM130.176 61.176L145.829 70.0648L145.829 70.0648L130.176 61.176ZM123.744 67.032L116.143 50.716L116.107 50.7327L116.071 50.7495L123.744 67.032ZM103.968 69H85.9684V87H103.968V69ZM103.968 34.728V16.728H85.9684V34.728H103.968ZM124.032 36.648L116.141 52.8258L116.179 52.8446L116.218 52.8632L124.032 36.648ZM130.176 42.312L114.585 51.307L114.654 51.4257L114.724 51.5434L130.176 42.312ZM120.432 41.88L111.691 57.6148L111.897 57.7294L112.106 57.8385L120.432 41.88ZM111.216 40.68V22.68H93.2164V40.68H111.216ZM111.216 63H93.2164V81H111.216V63ZM122.256 60.168L108.978 48.0151L108.978 48.0152L122.256 60.168ZM114.384 51.528C114.384 52.3112 114.308 52.7075 114.286 52.8044C114.268 52.8849 114.308 52.6677 114.524 52.2872L145.829 70.0648C149.221 64.0905 150.384 57.6068 150.384 51.528H114.384ZM114.524 52.2872C114.699 51.9792 114.975 51.6119 115.346 51.2741C115.712 50.9412 116.02 50.7732 116.143 50.716L131.346 83.348C137.4 80.5276 142.429 76.0519 145.829 70.0648L114.524 52.2872ZM116.071 50.7495C116.259 50.661 115.662 51 113.664 51V87C119.539 87 125.662 86.027 131.418 83.3145L116.071 50.7495ZM113.664 51H103.968V87H113.664V51ZM121.968 69V34.728H85.9684V69H121.968ZM103.968 52.728H114.72V16.728H103.968V52.728ZM114.72 52.728C116.18 52.728 116.47 52.9865 116.141 52.8258L131.924 20.4702C126.347 17.7495 120.429 16.728 114.72 16.728V52.728ZM116.218 52.8632C116.039 52.7768 115.717 52.5877 115.36 52.2584C115 51.9266 114.743 51.5806 114.585 51.307L145.768 33.317C142.476 27.6111 137.682 23.2446 131.847 20.4328L116.218 52.8632ZM114.724 51.5434C114.584 51.3094 114.487 51.1032 114.423 50.9424C114.36 50.7831 114.334 50.6825 114.328 50.6578C114.318 50.6167 114.384 50.8748 114.384 51.528H150.384C150.384 45.4986 149.177 39.019 145.629 33.0806L114.724 51.5434ZM142.848 51.72C142.848 47.6187 142.277 42.7895 140.153 38.0801L107.336 52.8799C106.992 52.1168 106.879 51.5747 106.848 51.3999C106.817 51.2265 106.848 51.3094 106.848 51.72H142.848ZM140.153 38.0801C137.897 33.0774 134.096 28.7061 128.759 25.9215L112.106 57.8385C111.031 57.2773 110.001 56.5035 109.118 55.543C108.245 54.595 107.682 53.6475 107.336 52.8799L140.153 38.0801ZM129.174 26.1452C124.409 23.4979 119.433 22.68 115.104 22.68V58.68C115 58.68 113.576 58.6621 111.691 57.6148L129.174 26.1452ZM115.104 22.68H111.216V58.68H115.104V22.68ZM93.2164 40.68V63H129.216V40.68H93.2164ZM111.216 81H114.336V45H111.216V81ZM114.336 81C120.916 81 129.236 79.2025 135.535 72.3208L108.978 48.0152C110.278 46.5951 111.748 45.7619 112.92 45.343C113.985 44.962 114.573 45 114.336 45V81ZM135.535 72.3209C141.447 65.8609 142.848 57.9116 142.848 51.72H106.848C106.848 53.0164 106.522 50.6991 108.978 48.0151L135.535 72.3209ZM174.252 69V87H206.884L189.477 59.3982L174.252 69ZM165.996 69L150.706 78.4989L155.988 87H165.996V69ZM157.02 54.552L172.309 45.0531L162.149 28.6984L146.514 39.9357L157.02 54.552ZM153.948 56.76L143.442 42.1437L135.948 47.5304V56.76H153.948ZM153.948 69V87H171.948V69H153.948ZM146.7 69H128.7V87H146.7V69ZM146.7 34.728V16.728H128.7V34.728H146.7ZM153.948 34.728H171.948V16.728H153.948V34.728ZM153.948 50.424H135.948V106.592L168.595 60.8863L153.948 50.424ZM155.388 48.408L170.035 58.8703L170.035 58.8703L155.388 48.408ZM156.828 46.392L142.733 35.1971L142.447 35.5564L142.18 35.9297L156.828 46.392ZM166.092 34.728V16.728H157.401L151.997 23.5331L166.092 34.728ZM174.156 34.728L188.294 45.8685L211.256 16.728H174.156V34.728ZM162.204 49.896L148.065 38.7555L140.196 48.7427L146.979 59.4978L162.204 49.896ZM174.252 51H165.996V87H174.252V51ZM181.285 59.5011L172.309 45.0531L141.73 64.0509L150.706 78.4989L181.285 59.5011ZM146.514 39.9357L143.442 42.1437L164.453 71.3763L167.525 69.1683L146.514 39.9357ZM135.948 56.76V69H171.948V56.76H135.948ZM153.948 51H146.7V87H153.948V51ZM164.7 69V34.728H128.7V69H164.7ZM146.7 52.728H153.948V16.728H146.7V52.728ZM135.948 34.728V50.424H171.948V34.728H135.948ZM168.595 60.8863C169.075 60.2143 169.555 59.5423 170.035 58.8703L140.74 37.9457C140.26 38.6177 139.78 39.2897 139.3 39.9617L168.595 60.8863ZM170.035 58.8703C170.515 58.1983 170.995 57.5263 171.475 56.8543L142.18 35.9297C141.7 36.6017 141.22 37.2737 140.74 37.9457L170.035 58.8703ZM170.923 57.5869L180.187 45.9229L151.997 23.5331L142.733 35.1971L170.923 57.5869ZM166.092 52.728H174.156V16.728H166.092V52.728ZM160.017 23.5875L148.065 38.7555L176.342 61.0365L188.294 45.8685L160.017 23.5875ZM146.979 59.4978L159.027 78.6018L189.477 59.3982L177.429 40.2942L146.979 59.4978Z" fill="black" fill-opacity="0.5"/>
    </g>
    <defs>
    <filter id="filter0_i_1_4" x="60.0653" y="34.728" width="114.186" height="38.272" filterUnits="userSpaceOnUse" color-interpolation-filters="sRGB">
    <feFlood flood-opacity="0" result="BackgroundImageFix"/>
    <feBlend mode="normal" in="SourceGraphic" in2="BackgroundImageFix" result="shape"/>
    <feColorMatrix in="SourceAlpha" type="matrix" values="0 0 0 0 0 0 0 0 0 0 0 0 0 0 0 0 0 0 127 0" result="hardAlpha"/>
    <feOffset dy="4"/>
    <feGaussianBlur stdDeviation="2"/>
    <feComposite in2="hardAlpha" operator="arithmetic" k2="-1" k3="1"/>
    <feColorMatrix type="matrix" values="0 0 0 0 0 0 0 0 0 0 0 0 0 0 0 0 0 0 0.25 0"/>
    <feBlend mode="normal" in2="shape" result="effect1_innerShadow_1_4"/>
    </filter>
    </defs>
    </svg>
    